<svg xmlns="http://www.w3.org/2000/svg" viewBox="0 0 238.01 274.83"><defs><style>.cls-1,.cls-3{fill:#fff;}.cls-1{stroke:#165571;stroke-miterlimit:10;stroke-width:0.74px;}.cls-2{fill:#1d8dac;}.cls-4,.cls-5,.cls-6{fill:#165571;}.cls-4{fill-rule:evenodd;}.cls-6{font-size:25.87px;font-family:Spartan-Black, Spartan;font-weight:800;letter-spacing:-0.09em;}.cls-7{letter-spacing:-0.1em;}.cls-8{letter-spacing:-0.1em;}.cls-9{letter-spacing:-0.09em;}.cls-10{letter-spacing:-0.09em;}.cls-11{letter-spacing:-0.1em;}</style></defs><title>Asset 2tranparent_logo</title><g id="Layer_2" data-name="Layer 2"><g id="Layer_1-2" data-name="Layer 1"><polygon class="cls-1" points="0.37 68.92 0.37 205.91 119.01 274.4 237.64 205.91 237.64 68.92 119.01 0.43 0.37 68.92"/><path class="cls-2" d="M59.7,167.14h120V117.61h-7v-13.3h-6.87V85.09h-3c-1.35-7.32-5.29-13.07-10.31-15l-4.28-22.48-3.5,22.71a13.45,13.45,0,0,0-4.84,3.6c-2.31-9.13-8.06-16.57-15.16-20.45V49.14h-5V36.91a5.84,5.84,0,0,0-2.25-4.57l-3.39-6.14-3.38,6.14a5.84,5.84,0,0,0-2.25,4.57V49.14h-5.69V53.7C93.51,58.77,86.3,69.76,86.3,82.5c0,.9.06,1.69.06,2.59H81.12v19.22h-18v13.3H59.7Z"/><polygon class="cls-3" points="200.91 53.14 174.63 66.77 173.97 76.47 112.04 126.89 58.16 148.09 34.02 158.43 34.35 181.43 200.91 181.43 200.91 53.14"/><polygon class="cls-4" points="39.11 176.96 61.71 177.49 61.71 151.96 40.19 157.81 39.11 176.96"/><polygon class="cls-4" points="67.53 176.79 89.72 177.32 89.38 140.37 67.69 149.4 67.53 176.79"/><polygon class="cls-4" points="97.26 177.16 116.33 177.41 117.63 129.69 96.44 137.24 97.26 177.16"/><polygon class="cls-4" points="123.05 177.98 141.63 177.9 141.12 109.15 122.39 126.24 123.05 177.98"/><polygon class="cls-4" points="149.5 177.82 168.73 177.9 169.7 85.17 147.2 105.54 149.5 177.82"/><polygon class="cls-4" points="175.78 177.98 199.12 179.38 199.6 55.77 176.44 68.09 175.78 177.98"/><path class="cls-5" d="M85.42,186.31a2.63,2.63,0,0,1,1.7.48,2.47,2.47,0,0,1,.8,1.28,7.05,7.05,0,0,1,.22,1.78v4a.92.92,0,0,1-.27.67.89.89,0,0,1-.67.27.87.87,0,0,1-.66-.27.92.92,0,0,1-.27-.67v-4a3.26,3.26,0,0,0-.12-.92,1.19,1.19,0,0,0-.45-.66,1.49,1.49,0,0,0-.93-.25,1.89,1.89,0,0,0-1,.25,1.54,1.54,0,0,0-.63.66,2,2,0,0,0-.21.92v4a1,1,0,0,1-.26.67.93.93,0,0,1-1.6-.67v-9.6a.9.9,0,0,1,.26-.67.94.94,0,0,1,1.34,0,.94.94,0,0,1,.26.67v3.85l-.23,0a3.31,3.31,0,0,1,.38-.57,3.73,3.73,0,0,1,.61-.57,3.14,3.14,0,0,1,.79-.42A2.67,2.67,0,0,1,85.42,186.31Z"/><path class="cls-5" d="M100,194.93a4.62,4.62,0,0,1-2.29-.55,3.77,3.77,0,0,1-1.49-1.5,4.35,4.35,0,0,1-.52-2.14,4.83,4.83,0,0,1,.56-2.39,4,4,0,0,1,1.49-1.51,3.83,3.83,0,0,1,1.94-.53,3.48,3.48,0,0,1,1.49.33,4.08,4.08,0,0,1,1.25.89,4.25,4.25,0,0,1,.86,1.31,3.9,3.9,0,0,1,.32,1.59.81.81,0,0,1-.29.6,1,1,0,0,1-.65.23H96.77l-.47-1.55H102l-.34.31v-.42a1.38,1.38,0,0,0-.32-.8,2,2,0,0,0-.72-.57,2,2,0,0,0-.9-.21,3,3,0,0,0-.87.12,1.77,1.77,0,0,0-.7.42,2.1,2.1,0,0,0-.47.79,4.13,4.13,0,0,0-.17,1.26,2.74,2.74,0,0,0,.35,1.42,2.33,2.33,0,0,0,.9.89,2.43,2.43,0,0,0,1.17.3,3.74,3.74,0,0,0,.92-.09,2.22,2.22,0,0,0,.55-.23l.38-.22a1.11,1.11,0,0,1,.53-.14.75.75,0,0,1,.57.23.81.81,0,0,1,.22.54,1,1,0,0,1-.43.76,3.55,3.55,0,0,1-1.14.6A4.51,4.51,0,0,1,100,194.93Z"/><path class="cls-5" d="M118.1,186.31a.88.88,0,0,1,.66.27.9.9,0,0,1,.27.68v6.57a.92.92,0,0,1-.27.67,1,1,0,0,1-1.33,0,.92.92,0,0,1-.27-.67v-.77l.35.14a.9.9,0,0,1-.22.49,2.93,2.93,0,0,1-.59.57,3.49,3.49,0,0,1-.88.47,3,3,0,0,1-1.09.2,3.6,3.6,0,0,1-1.94-.55,4,4,0,0,1-1.38-1.52,4.85,4.85,0,0,1-.5-2.23,4.91,4.91,0,0,1,.5-2.25,4,4,0,0,1,1.36-1.52,3.48,3.48,0,0,1,1.89-.55,3.56,3.56,0,0,1,2.2.72,2.56,2.56,0,0,1,.64.63,1,1,0,0,1,.22.53l-.56.2v-1.13a.93.93,0,0,1,.27-.68A.89.89,0,0,1,118.1,186.31ZM115,193.22a2.05,2.05,0,0,0,1.19-.34,2.27,2.27,0,0,0,.8-.93,3.19,3.19,0,0,0,0-2.66,2.27,2.27,0,0,0-.8-.93,2.24,2.24,0,0,0-2.37,0,2.34,2.34,0,0,0-.8.93,3.19,3.19,0,0,0,0,2.66,2.34,2.34,0,0,0,.8.93A2,2,0,0,0,115,193.22Z"/><path class="cls-5" d="M129,193.83a.92.92,0,0,1-.27.67,1,1,0,0,1-1.33,0,1,1,0,0,1-.26-.67v-9.6a.9.9,0,0,1,.27-.67.94.94,0,0,1,.68-.28.87.87,0,0,1,.66.28.93.93,0,0,1,.25.67Z"/><path class="cls-5" d="M137.2,186.62h3.68a.85.85,0,0,1,.62.25.83.83,0,0,1,.25.62.79.79,0,0,1-.25.6.84.84,0,0,1-.62.24H137.2a.85.85,0,0,1-.87-.87.82.82,0,0,1,.25-.6A.88.88,0,0,1,137.2,186.62Zm1.66-1.94a.87.87,0,0,1,.66.27.93.93,0,0,1,.26.68v6.91a.63.63,0,0,0,.09.35.47.47,0,0,0,.23.21.83.83,0,0,0,.32.06,1,1,0,0,0,.34-.07.8.8,0,0,1,.36-.07.53.53,0,0,1,.39.2.8.8,0,0,1,.18.56.81.81,0,0,1-.47.71,2,2,0,0,1-1,.28,6.39,6.39,0,0,1-.72-.05,2.05,2.05,0,0,1-.75-.27,1.65,1.65,0,0,1-.58-.64,2.64,2.64,0,0,1-.23-1.2v-7a.94.94,0,0,1,.27-.68A.92.92,0,0,1,138.86,184.68Z"/><path class="cls-5" d="M153.78,186.31a2.61,2.61,0,0,1,1.7.48,2.41,2.41,0,0,1,.8,1.28,6.63,6.63,0,0,1,.22,1.78v4a1,1,0,0,1-.26.67.93.93,0,0,1-1.6-.67v-4a3.24,3.24,0,0,0-.13-.92,1.19,1.19,0,0,0-.45-.66,1.49,1.49,0,0,0-.93-.25,1.92,1.92,0,0,0-1,.25,1.54,1.54,0,0,0-.63.66,2,2,0,0,0-.21.92v4a1,1,0,0,1-.26.67,1,1,0,0,1-1.34,0,1,1,0,0,1-.26-.67v-9.6a.94.94,0,0,1,.26-.67.94.94,0,0,1,1.34,0,.94.94,0,0,1,.26.67v3.85l-.23,0a2.9,2.9,0,0,1,.39-.57,3.65,3.65,0,0,1,.6-.57,3.21,3.21,0,0,1,.8-.42A2.62,2.62,0,0,1,153.78,186.31Z"/><text class="cls-6" transform="translate(37.74 220.66)">d<tspan class="cls-7" x="16.53" y="0">a</tspan><tspan class="cls-8" x="32.88" y="0">t</tspan><tspan x="42.58" y="0">a s</tspan><tspan class="cls-9" x="75.03" y="0">c</tspan><tspan x="85.63" y="0">i</tspan><tspan class="cls-8" x="92.67" y="0">e</tspan><tspan class="cls-10" x="106.56" y="0">nc</tspan><tspan class="cls-11" x="133.72" y="0">e</tspan><tspan class="cls-10" x="147.56" y="0">s</tspan></text></g></g></svg>